<svg xmlns="http://www.w3.org/2000/svg" viewBox="0 0 1024 1024" width="1024" height="1024">
<defs>
 <linearGradient id="bg" x1="0" y1="0" x2="0" y2="1"><stop offset="0" stop-color="#34363D"/><stop offset=".55" stop-color="#1A1B1F"/><stop offset="1" stop-color="#0B0B0D"/></linearGradient>
 <radialGradient id="sheen" cx=".28" cy=".12" r=".9"><stop offset="0" stop-color="#fff" stop-opacity=".16"/><stop offset=".5" stop-color="#fff" stop-opacity="0"/></radialGradient>
 <linearGradient id="lime" x1="0" y1="1" x2="1" y2="0"><stop offset="0" stop-color="#9FD21C"/><stop offset="1" stop-color="#E2FF6B"/></linearGradient>
 <linearGradient id="glass" x1="0" y1="0" x2="0" y2="1"><stop offset="0" stop-color="#fff" stop-opacity=".16"/><stop offset="1" stop-color="#fff" stop-opacity=".03"/></linearGradient>
 <linearGradient id="rim" x1="0" y1="0" x2="0" y2="1"><stop offset="0" stop-color="#fff" stop-opacity=".55"/><stop offset=".5" stop-color="#fff" stop-opacity=".06"/><stop offset="1" stop-color="#fff" stop-opacity=".22"/></linearGradient>
 <radialGradient id="hub" cx=".4" cy=".3" r=".8"><stop offset="0" stop-color="#FFFFFF"/><stop offset="1" stop-color="#C9CBD1"/></radialGradient>
 <filter id="glow" x="-50%" y="-50%" width="200%" height="200%"><feGaussianBlur stdDeviation="22"/></filter>
 <filter id="sh" x="-20%" y="-20%" width="140%" height="140%"><feDropShadow dx="0" dy="18" stdDeviation="22" flood-color="#000" flood-opacity=".45"/></filter>
</defs>
<rect width="1024" height="1024" fill="url(#bg)"/><rect width="1024" height="1024" fill="url(#sheen)"/>
<g opacity=".55" filter="url(#glow)"><line x1="287.1" y1="772.9" x2="335.2" y2="724.8" stroke="url(#lime)" stroke-width="40" stroke-linecap="round"/><line x1="231.5" y1="697.9" x2="291.5" y2="665.8" stroke="url(#lime)" stroke-width="40" stroke-linecap="round"/><line x1="200.1" y1="610.0" x2="266.8" y2="596.8" stroke="url(#lime)" stroke-width="40" stroke-linecap="round"/><line x1="195.5" y1="516.8" x2="263.2" y2="523.5" stroke="url(#lime)" stroke-width="40" stroke-linecap="round"/><line x1="218.2" y1="426.3" x2="281.0" y2="452.3" stroke="url(#lime)" stroke-width="40" stroke-linecap="round"/><line x1="266.2" y1="346.3" x2="318.7" y2="389.4" stroke="url(#lime)" stroke-width="40" stroke-linecap="round"/><line x1="335.3" y1="283.6" x2="373.1" y2="340.1" stroke="url(#lime)" stroke-width="40" stroke-linecap="round"/><line x1="419.7" y1="243.7" x2="439.4" y2="308.8" stroke="url(#lime)" stroke-width="40" stroke-linecap="round"/><line x1="512.0" y1="230.0" x2="512.0" y2="298.0" stroke="url(#lime)" stroke-width="40" stroke-linecap="round"/><line x1="604.3" y1="243.7" x2="584.6" y2="308.8" stroke="url(#lime)" stroke-width="40" stroke-linecap="round"/><line x1="688.7" y1="283.6" x2="650.9" y2="340.1" stroke="url(#lime)" stroke-width="40" stroke-linecap="round"/></g>
<circle cx="512" cy="548" r="372" fill="url(#glass)" stroke="url(#rim)" stroke-width="5" filter="url(#sh)"/>
<line x1="287.1" y1="772.9" x2="335.2" y2="724.8" stroke="url(#lime)" stroke-width="40" stroke-linecap="round"/><line x1="231.5" y1="697.9" x2="291.5" y2="665.8" stroke="url(#lime)" stroke-width="40" stroke-linecap="round"/><line x1="200.1" y1="610.0" x2="266.8" y2="596.8" stroke="url(#lime)" stroke-width="40" stroke-linecap="round"/><line x1="195.5" y1="516.8" x2="263.2" y2="523.5" stroke="url(#lime)" stroke-width="40" stroke-linecap="round"/><line x1="218.2" y1="426.3" x2="281.0" y2="452.3" stroke="url(#lime)" stroke-width="40" stroke-linecap="round"/><line x1="266.2" y1="346.3" x2="318.7" y2="389.4" stroke="url(#lime)" stroke-width="40" stroke-linecap="round"/><line x1="335.3" y1="283.6" x2="373.1" y2="340.1" stroke="url(#lime)" stroke-width="40" stroke-linecap="round"/><line x1="419.7" y1="243.7" x2="439.4" y2="308.8" stroke="url(#lime)" stroke-width="40" stroke-linecap="round"/><line x1="512.0" y1="230.0" x2="512.0" y2="298.0" stroke="url(#lime)" stroke-width="40" stroke-linecap="round"/><line x1="604.3" y1="243.7" x2="584.6" y2="308.8" stroke="url(#lime)" stroke-width="40" stroke-linecap="round"/><line x1="688.7" y1="283.6" x2="650.9" y2="340.1" stroke="url(#lime)" stroke-width="40" stroke-linecap="round"/><line x1="757.8" y1="346.3" x2="705.3" y2="389.4" stroke="rgba(255,255,255,.30)" stroke-width="40" stroke-linecap="round"/><line x1="805.8" y1="426.3" x2="743.0" y2="452.3" stroke="rgba(255,255,255,.30)" stroke-width="40" stroke-linecap="round"/><line x1="828.5" y1="516.8" x2="760.8" y2="523.5" stroke="rgba(255,255,255,.30)" stroke-width="40" stroke-linecap="round"/><line x1="823.9" y1="610.0" x2="757.2" y2="596.8" stroke="rgba(255,255,255,.30)" stroke-width="40" stroke-linecap="round"/><line x1="792.5" y1="697.9" x2="732.5" y2="665.8" stroke="rgba(255,255,255,.30)" stroke-width="40" stroke-linecap="round"/><line x1="736.9" y1="772.9" x2="688.8" y2="724.8" stroke="rgba(255,255,255,.30)" stroke-width="40" stroke-linecap="round"/>
<line x1="512" y1="548" x2="630.9" y2="370.1" stroke="#fff" stroke-width="30" stroke-linecap="round" filter="url(#sh)"/>
<circle cx="512" cy="548" r="58" fill="url(#hub)" filter="url(#sh)"/>
<circle cx="512" cy="548" r="20" fill="#16171A"/>
</svg>